<svg xmlns="http://www.w3.org/2000/svg" version="1.1" xmlns:xlink="http://www.w3.org/1999/xlink" xmlns:svgjs="http://svgjs.dev/svgjs" viewBox="0 0 800 800"><g fill="none" stroke-width="3" stroke="hsl(165, 88%, 33%)" stroke-linecap="round"><line x1="313" y1="400" x2="487" y2="400" transform="rotate(0, 400, 400)" opacity="0.64"></line><line x1="165" y1="400" x2="635" y2="400" transform="rotate(4, 400, 400)" opacity="0.58"></line><line x1="609" y1="400" x2="191" y2="400" transform="rotate(8, 400, 400)" opacity="0.12"></line><line x1="402" y1="400" x2="398" y2="400" transform="rotate(12, 400, 400)" opacity="0.78"></line><line x1="256.5" y1="400" x2="543.5" y2="400" transform="rotate(16, 400, 400)" opacity="0.66"></line><line x1="509.5" y1="400" x2="290.5" y2="400" transform="rotate(20, 400, 400)" opacity="0.88"></line><line x1="135" y1="400" x2="665" y2="400" transform="rotate(24, 400, 400)" opacity="0.42"></line><line x1="396.5" y1="400" x2="403.5" y2="400" transform="rotate(28, 400, 400)" opacity="0.91"></line><line x1="465" y1="400" x2="335" y2="400" transform="rotate(32, 400, 400)" opacity="0.09"></line><line x1="446.5" y1="400" x2="353.5" y2="400" transform="rotate(36, 400, 400)" opacity="0.31"></line><line x1="413" y1="400" x2="387" y2="400" transform="rotate(40, 400, 400)" opacity="0.94"></line><line x1="618.5" y1="400" x2="181.5" y2="400" transform="rotate(44, 400, 400)" opacity="0.39"></line><line x1="109" y1="400" x2="691" y2="400" transform="rotate(48, 400, 400)" opacity="0.15"></line><line x1="714" y1="400" x2="86" y2="400" transform="rotate(52, 400, 400)" opacity="0.81"></line><line x1="484.5" y1="400" x2="315.5" y2="400" transform="rotate(56, 400, 400)" opacity="0.81"></line><line x1="421.5" y1="400" x2="378.5" y2="400" transform="rotate(60, 400, 400)" opacity="0.31"></line><line x1="320.5" y1="400" x2="479.5" y2="400" transform="rotate(64, 400, 400)" opacity="0.66"></line><line x1="513.5" y1="400" x2="286.5" y2="400" transform="rotate(68, 400, 400)" opacity="0.92"></line><line x1="124" y1="400" x2="676" y2="400" transform="rotate(72, 400, 400)" opacity="0.74"></line><line x1="548" y1="400" x2="252" y2="400" transform="rotate(76, 400, 400)" opacity="0.58"></line><line x1="384.5" y1="400" x2="415.5" y2="400" transform="rotate(80, 400, 400)" opacity="0.56"></line><line x1="417.5" y1="400" x2="382.5" y2="400" transform="rotate(84, 400, 400)" opacity="0.74"></line><line x1="679" y1="400" x2="121" y2="400" transform="rotate(88, 400, 400)" opacity="0.54"></line><line x1="258" y1="400" x2="542" y2="400" transform="rotate(92, 400, 400)" opacity="0.64"></line><line x1="421.5" y1="400" x2="378.5" y2="400" transform="rotate(96, 400, 400)" opacity="0.68"></line><line x1="443" y1="400" x2="357" y2="400" transform="rotate(100, 400, 400)" opacity="0.84"></line><line x1="442.5" y1="400" x2="357.5" y2="400" transform="rotate(104, 400, 400)" opacity="0.42"></line><line x1="632.5" y1="400" x2="167.5" y2="400" transform="rotate(108, 400, 400)" opacity="0.63"></line><line x1="729" y1="400" x2="71" y2="400" transform="rotate(112, 400, 400)" opacity="0.26"></line><line x1="710.5" y1="400" x2="89.5" y2="400" transform="rotate(116, 400, 400)" opacity="0.42"></line><line x1="472" y1="400" x2="328" y2="400" transform="rotate(120, 400, 400)" opacity="0.33"></line><line x1="448" y1="400" x2="352" y2="400" transform="rotate(124, 400, 400)" opacity="0.58"></line><line x1="116" y1="400" x2="684" y2="400" transform="rotate(128, 400, 400)" opacity="0.42"></line><line x1="713" y1="400" x2="87" y2="400" transform="rotate(132, 400, 400)" opacity="0.58"></line><line x1="316" y1="400" x2="484" y2="400" transform="rotate(136, 400, 400)" opacity="0.90"></line><line x1="358.5" y1="400" x2="441.5" y2="400" transform="rotate(140, 400, 400)" opacity="0.82"></line><line x1="447.5" y1="400" x2="352.5" y2="400" transform="rotate(144, 400, 400)" opacity="0.14"></line><line x1="263" y1="400" x2="537" y2="400" transform="rotate(148, 400, 400)" opacity="0.77"></line><line x1="360" y1="400" x2="440" y2="400" transform="rotate(152, 400, 400)" opacity="0.57"></line><line x1="448.5" y1="400" x2="351.5" y2="400" transform="rotate(156, 400, 400)" opacity="0.15"></line><line x1="299.5" y1="400" x2="500.5" y2="400" transform="rotate(160, 400, 400)" opacity="0.93"></line><line x1="241" y1="400" x2="559" y2="400" transform="rotate(164, 400, 400)" opacity="0.88"></line><line x1="357" y1="400" x2="443" y2="400" transform="rotate(168, 400, 400)" opacity="0.10"></line><line x1="35.5" y1="400" x2="764.5" y2="400" transform="rotate(172, 400, 400)" opacity="0.94"></line><line x1="152.5" y1="400" x2="647.5" y2="400" transform="rotate(176, 400, 400)" opacity="0.77"></line><line x1="742.5" y1="400" x2="57.5" y2="400" transform="rotate(180, 400, 400)" opacity="0.63"></line><line x1="129" y1="400" x2="671" y2="400" transform="rotate(184, 400, 400)" opacity="0.53"></line><line x1="300.5" y1="400" x2="499.5" y2="400" transform="rotate(188, 400, 400)" opacity="0.25"></line><line x1="698.5" y1="400" x2="101.5" y2="400" transform="rotate(192, 400, 400)" opacity="0.61"></line><line x1="225" y1="400" x2="575" y2="400" transform="rotate(196, 400, 400)" opacity="0.35"></line><line x1="636" y1="400" x2="164" y2="400" transform="rotate(200, 400, 400)" opacity="0.65"></line><line x1="186.5" y1="400" x2="613.5" y2="400" transform="rotate(204, 400, 400)" opacity="0.38"></line><line x1="96" y1="400" x2="704" y2="400" transform="rotate(208, 400, 400)" opacity="0.71"></line><line x1="377" y1="400" x2="423" y2="400" transform="rotate(212, 400, 400)" opacity="0.16"></line><line x1="266.5" y1="400" x2="533.5" y2="400" transform="rotate(216, 400, 400)" opacity="0.65"></line><line x1="491.5" y1="400" x2="308.5" y2="400" transform="rotate(220, 400, 400)" opacity="0.71"></line><line x1="307.5" y1="400" x2="492.5" y2="400" transform="rotate(224, 400, 400)" opacity="0.95"></line><line x1="66" y1="400" x2="734" y2="400" transform="rotate(228, 400, 400)" opacity="0.92"></line><line x1="130.5" y1="400" x2="669.5" y2="400" transform="rotate(232, 400, 400)" opacity="0.53"></line><line x1="69.5" y1="400" x2="730.5" y2="400" transform="rotate(236, 400, 400)" opacity="0.92"></line><line x1="732.5" y1="400" x2="67.5" y2="400" transform="rotate(240, 400, 400)" opacity="0.71"></line><line x1="224.5" y1="400" x2="575.5" y2="400" transform="rotate(244, 400, 400)" opacity="0.17"></line><line x1="565" y1="400" x2="235" y2="400" transform="rotate(248, 400, 400)" opacity="0.65"></line><line x1="120" y1="400" x2="680" y2="400" transform="rotate(252, 400, 400)" opacity="0.60"></line><line x1="422.5" y1="400" x2="377.5" y2="400" transform="rotate(256, 400, 400)" opacity="0.38"></line><line x1="468" y1="400" x2="332" y2="400" transform="rotate(260, 400, 400)" opacity="0.46"></line><line x1="248" y1="400" x2="552" y2="400" transform="rotate(264, 400, 400)" opacity="0.75"></line><line x1="208" y1="400" x2="592" y2="400" transform="rotate(268, 400, 400)" opacity="0.43"></line><line x1="339.5" y1="400" x2="460.5" y2="400" transform="rotate(272, 400, 400)" opacity="0.18"></line><line x1="356" y1="400" x2="444" y2="400" transform="rotate(276, 400, 400)" opacity="0.28"></line><line x1="477.5" y1="400" x2="322.5" y2="400" transform="rotate(280, 400, 400)" opacity="0.73"></line><line x1="383" y1="400" x2="417" y2="400" transform="rotate(284, 400, 400)" opacity="0.45"></line><line x1="388" y1="400" x2="412" y2="400" transform="rotate(288, 400, 400)" opacity="0.32"></line><line x1="726" y1="400" x2="74" y2="400" transform="rotate(292, 400, 400)" opacity="0.16"></line><line x1="82.5" y1="400" x2="717.5" y2="400" transform="rotate(296, 400, 400)" opacity="0.40"></line><line x1="271.5" y1="400" x2="528.5" y2="400" transform="rotate(300, 400, 400)" opacity="0.34"></line><line x1="137" y1="400" x2="663" y2="400" transform="rotate(304, 400, 400)" opacity="0.25"></line><line x1="180.5" y1="400" x2="619.5" y2="400" transform="rotate(308, 400, 400)" opacity="0.87"></line><line x1="495.5" y1="400" x2="304.5" y2="400" transform="rotate(312, 400, 400)" opacity="0.55"></line><line x1="517" y1="400" x2="283" y2="400" transform="rotate(316, 400, 400)" opacity="0.48"></line><line x1="180.5" y1="400" x2="619.5" y2="400" transform="rotate(320, 400, 400)" opacity="0.96"></line><line x1="665.5" y1="400" x2="134.5" y2="400" transform="rotate(324, 400, 400)" opacity="0.35"></line><line x1="119.5" y1="400" x2="680.5" y2="400" transform="rotate(328, 400, 400)" opacity="0.13"></line><line x1="525" y1="400" x2="275" y2="400" transform="rotate(332, 400, 400)" opacity="0.88"></line><line x1="180.5" y1="400" x2="619.5" y2="400" transform="rotate(336, 400, 400)" opacity="0.42"></line><line x1="246.5" y1="400" x2="553.5" y2="400" transform="rotate(340, 400, 400)" opacity="0.68"></line><line x1="727" y1="400" x2="73" y2="400" transform="rotate(344, 400, 400)" opacity="0.90"></line><line x1="590" y1="400" x2="210" y2="400" transform="rotate(348, 400, 400)" opacity="0.10"></line></g></svg>